{
  "asset" : {
    "generator" : "UE Viewer (umodel) build (unversioned)",
    "version" : "2.0"
  },
  "scene" : 0,
  "scenes" : [
    {
      "nodes" : [ 0 ]
    }
  ],
  "nodes" : [
    {
      "name" : "CoinShape",
      "mesh" : 0
    }
  ],
  "materials" : [
    {
      "name" : "Coin",
      "pbrMetallicRoughness" : {
        "baseColorFactor" : [ 0.3, 0.3, 0.3, 1.0 ],
        "metallicFactor" : 0.1,
        "roughnessFactor" : 0.5
      }
    }
  ],
  "meshes" : [
    {
      "primitives" : [
        {
          "attributes" : {
            "POSITION" : 1,
            "NORMAL" : 2,
            "TANGENT" : 3,
            "TEXCOORD_0" : 4
          },
          "indices" : 0,
          "material" : 0
        }
      ],
      "name" : "CoinShape"
    }
  ],
  "buffers" : [
    {
      "uri" : "CoinShape.bin",
      "byteLength" : 3072
    }
  ],
  "bufferViews" : [
    {
      "buffer" : 0,
      "byteOffset" : 0,
      "byteLength" : 288
    },
    {
      "buffer" : 0,
      "byteOffset" : 288,
      "byteLength" : 696
    },
    {
      "buffer" : 0,
      "byteOffset" : 984,
      "byteLength" : 696
    },
    {
      "buffer" : 0,
      "byteOffset" : 1680,
      "byteLength" : 928
    },
    {
      "buffer" : 0,
      "byteOffset" : 2608,
      "byteLength" : 464
    }
  ],
  "accessors" : [
    {
      "bufferView" : 0,
      "componentType" : 5123,
      "count" : 144,
      "type" : "SCALAR"
    },
    {
      "bufferView" : 1,
      "min" : [ -0.0884758, -1.43529, -1.45572 ],
      "max" : [ 0.088529, 1.47615, 1.45572 ],
      "componentType" : 5126,
      "count" : 58,
      "type" : "VEC3"
    },
    {
      "bufferView" : 2,
      "componentType" : 5126,
      "count" : 58,
      "type" : "VEC3"
    },
    {
      "bufferView" : 3,
      "componentType" : 5126,
      "count" : 58,
      "type" : "VEC4"
    },
    {
      "bufferView" : 4,
      "componentType" : 5126,
      "count" : 58,
      "type" : "VEC2"
    }
  ]
}
