{
  "asset" : {
    "generator" : "UE Viewer (umodel) build (unversioned)",
    "version" : "2.0"
  },
  "scene" : 0,
  "scenes" : [
    {
      "nodes" : [ 0 ]
    }
  ],
  "nodes" : [
    {
      "name" : "Beanstlk_HayShape",
      "mesh" : 0
    }
  ],
  "materials" : [
    {
      "name" : "beans_hay",
      "pbrMetallicRoughness" : {
        "baseColorFactor" : [ 0.3, 0.3, 0.3, 1.0 ],
        "metallicFactor" : 0.1,
        "roughnessFactor" : 0.5
      }
    }
  ],
  "meshes" : [
    {
      "primitives" : [
        {
          "attributes" : {
            "POSITION" : 1,
            "NORMAL" : 2,
            "TANGENT" : 3,
            "TEXCOORD_0" : 4
          },
          "indices" : 0,
          "material" : 0
        }
      ],
      "name" : "Beanstlk_HayShape"
    }
  ],
  "buffers" : [
    {
      "uri" : "Beanstlk_HayShape.bin",
      "byteLength" : 4344
    }
  ],
  "bufferViews" : [
    {
      "buffer" : 0,
      "byteOffset" : 0,
      "byteLength" : 408
    },
    {
      "buffer" : 0,
      "byteOffset" : 408,
      "byteLength" : 984
    },
    {
      "buffer" : 0,
      "byteOffset" : 1392,
      "byteLength" : 984
    },
    {
      "buffer" : 0,
      "byteOffset" : 2376,
      "byteLength" : 1312
    },
    {
      "buffer" : 0,
      "byteOffset" : 3688,
      "byteLength" : 656
    }
  ],
  "accessors" : [
    {
      "bufferView" : 0,
      "componentType" : 5123,
      "count" : 204,
      "type" : "SCALAR"
    },
    {
      "bufferView" : 1,
      "min" : [ -0.415119, -0.0149657, -0.229453 ],
      "max" : [ 0.415119, 0.334144, 0.343097 ],
      "componentType" : 5126,
      "count" : 82,
      "type" : "VEC3"
    },
    {
      "bufferView" : 2,
      "componentType" : 5126,
      "count" : 82,
      "type" : "VEC3"
    },
    {
      "bufferView" : 3,
      "componentType" : 5126,
      "count" : 82,
      "type" : "VEC4"
    },
    {
      "bufferView" : 4,
      "componentType" : 5126,
      "count" : 82,
      "type" : "VEC2"
    }
  ]
}
